<svg xmlns="http://www.w3.org/2000/svg" xmlns:xlink="http://www.w3.org/1999/xlink" width="1344" zoomAndPan="magnify" viewBox="0 0 1008 1295.99994" height="1728" preserveAspectRatio="xMidYMid meet" version="1.0"><defs><g/><clipPath id="edf027e055"><path d="M 280 222 L 728 222 L 728 890.960938 L 280 890.960938 Z M 280 222 " clip-rule="nonzero"/></clipPath></defs><rect x="-100.8" width="1209.6" fill="#ffffff" y="-129.599994" height="1555.199927" fill-opacity="1"/><rect x="-100.8" width="1209.6" fill="#ffffff" y="-129.599994" height="1555.199927" fill-opacity="1"/><rect x="-100.8" width="1209.6" fill="#8c52ff" y="-129.599994" height="1555.199927" fill-opacity="1"/><path fill="#88adff" d="M 694.042969 613.605469 C 695.652344 607.238281 698.824219 601.421875 701.671875 595.519531 C 704.105469 590.433594 706.316406 585.253906 708.304688 579.976562 C 710.296875 574.703125 712.058594 569.351562 713.589844 563.925781 C 715.121094 558.496094 716.417969 553.015625 717.480469 547.476562 C 718.542969 541.9375 719.367188 536.367188 719.949219 530.757812 C 720.535156 525.148438 720.878906 519.527344 720.984375 513.886719 C 721.085938 508.25 720.949219 502.617188 720.570312 496.992188 C 720.191406 491.367188 719.574219 485.765625 718.714844 480.191406 C 717.855469 474.621094 716.761719 469.09375 715.429688 463.613281 C 713.929688 457.535156 712.023438 451.351562 707.789062 446.703125 C 700.71875 439.003906 688.867188 437.75 678.636719 439.890625 C 665.085938 442.699219 653.082031 450.289062 641.410156 457.742188 C 630.28125 464.839844 618.253906 473.167969 615.132812 486.003906 C 613.253906 493.769531 614.972656 502.355469 611.59375 509.578125 C 607.929688 517.480469 599.183594 521.664062 590.765625 523.941406 C 577.921875 527.414062 563.851562 527.769531 551.632812 522.480469 C 539.414062 517.195312 529.550781 505.585938 528.625 492.296875 C 528.339844 488.128906 528.855469 483.699219 526.949219 479.964844 C 523.3125 472.800781 512.414062 472.675781 506.082031 477.675781 C 501.285156 471.75 491.300781 469.417969 486.070312 474.953125 C 486.070312 484.492188 485.867188 494.832031 480.363281 502.683594 C 477.535156 506.414062 474.132812 509.519531 470.164062 512.003906 C 457.414062 520.695312 441.992188 526.570312 426.667969 524.664062 C 411.34375 522.753906 396.703125 511.59375 393.976562 496.402344 C 392.996094 490.949219 393.445312 484.816406 390.21875 480.253906 C 388.230469 477.460938 385.125 475.6875 382.128906 474.023438 C 368.015625 466.175781 353.816406 458.492188 339.535156 450.96875 C 327.027344 444.386719 310.585938 438.296875 299.949219 447.589844 C 294.707031 452.183594 292.621094 459.335938 291.164062 466.136719 C 289.847656 472.421875 288.839844 478.757812 288.136719 485.144531 C 287.4375 491.53125 287.050781 497.933594 286.972656 504.355469 C 286.898438 510.78125 287.132812 517.191406 287.679688 523.589844 C 288.226562 529.992188 289.085938 536.351562 290.25 542.667969 C 291.417969 548.984375 292.886719 555.230469 294.660156 561.402344 C 296.4375 567.574219 298.503906 573.648438 300.871094 579.621094 C 303.234375 585.59375 305.886719 591.433594 308.820312 597.148438 C 311.753906 602.863281 314.957031 608.421875 318.433594 613.820312 L 324.753906 608.808594 C 322.164062 614.542969 319.824219 620.375 317.734375 626.308594 C 315.644531 632.246094 313.808594 638.257812 312.234375 644.351562 C 310.660156 650.441406 309.347656 656.589844 308.300781 662.796875 C 307.253906 669 306.472656 675.238281 305.960938 681.511719 C 305.445312 687.78125 305.203125 694.0625 305.226562 700.355469 C 305.253906 706.648438 305.546875 712.929688 306.113281 719.195312 C 306.675781 725.460938 307.503906 731.695312 308.601562 737.890625 C 309.699219 744.085938 311.0625 750.222656 312.683594 756.300781 C 319.632812 781.960938 331.753906 806.925781 351.535156 824.707031 C 363.519531 835.472656 377.851562 843.226562 392.015625 850.886719 C 408.703125 859.878906 425.523438 868.941406 443.628906 874.542969 C 459.972656 879.582031 477.503906 881.667969 494.109375 878.164062 C 494.8125 878.863281 495.613281 879.414062 496.515625 879.820312 C 497.417969 880.226562 498.363281 880.460938 499.351562 880.523438 C 539.738281 887.59375 580.414062 871.816406 617.394531 854.101562 C 639.722656 843.417969 662.550781 831.113281 676.511719 810.671875 C 682.804688 801.449219 686.988281 790.953125 690.40625 780.328125 C 693.640625 770.226562 696.21875 759.964844 698.144531 749.535156 C 700.070312 739.109375 701.328125 728.601562 701.910156 718.011719 C 702.496094 707.425781 702.40625 696.84375 701.640625 686.265625 C 700.875 675.6875 699.441406 665.203125 697.339844 654.8125 C 694.5625 641.183594 690.609375 627.082031 694.042969 613.605469 Z M 541.550781 799.703125 L 533.214844 834.082031 C 529.753906 848.335938 523.542969 865.300781 509.078125 867.714844 C 505.375 868.328125 501.421875 867.851562 497.9375 869.269531 L 497.648438 869.402344 C 494.925781 864.15625 489.601562 859.757812 485.5 855.152344 C 473.90625 842.109375 470.421875 823.972656 467.382812 806.804688 C 466.742188 803.164062 466.101562 799.347656 467.382812 795.902344 C 468.675781 792.167969 471.851562 789.441406 475.023438 787.113281 C 482.066406 781.839844 490.0625 777.449219 495.511719 770.460938 C 498.9375 765.886719 501.273438 760.8125 502.527344 755.238281 C 507.8125 770.160156 517.007812 785.996094 532.492188 789.144531 C 535.953125 789.851562 540.191406 790.289062 541.703125 793.488281 C 542.53125 795.398438 542.042969 797.644531 541.550781 799.703125 Z M 541.550781 799.703125 " fill-opacity="1" fill-rule="nonzero"/><path fill="#ff1a6c" d="M 469.003906 794.128906 C 473.757812 818.65625 481.957031 843.484375 499.269531 861.445312 C 500.457031 862.910156 501.929688 863.980469 503.683594 864.660156 C 507.144531 865.683594 510.644531 863.300781 513.21875 860.847656 C 529.703125 845.378906 536.074219 822.417969 541.824219 800.617188 C 542.191406 799.589844 542.269531 798.539062 542.054688 797.46875 C 541.59375 796.300781 540.828125 795.394531 539.753906 794.742188 C 527.792969 785.96875 511.148438 781.539062 505.074219 768.019531 C 499.800781 776.59375 493.113281 783.859375 485.007812 789.824219 C 482.925781 791.335938 479.996094 792.753906 477.980469 791.1875 " fill-opacity="1" fill-rule="nonzero"/><path fill="#ffffff" d="M 361.65625 239.578125 C 349.96875 248.175781 349.148438 265.699219 353.632812 279.503906 C 358.113281 293.308594 366.613281 305.652344 370.195312 319.742188 C 374.402344 336.613281 371.109375 354.371094 372.0625 371.742188 C 372.273438 376.171875 372.789062 380.566406 373.601562 384.925781 C 374.417969 389.285156 375.527344 393.566406 376.929688 397.773438 C 378.335938 401.976562 380.019531 406.070312 381.984375 410.042969 C 383.949219 414.019531 386.175781 417.839844 388.664062 421.507812 C 395.054688 430.734375 403.144531 438.652344 411.644531 446.035156 C 412.972656 446.964844 413.878906 448.199219 414.367188 449.742188 C 414.515625 451.277344 414.160156 452.683594 413.304688 453.96875 C 409.21875 461.679688 402.789062 467.976562 398.324219 475.496094 C 393.855469 483.019531 391.511719 492.871094 395.9375 500.394531 C 398.214844 503.757812 401.09375 506.480469 404.574219 508.570312 C 418.195312 517.710938 435.238281 523.09375 451.121094 519.046875 C 467.003906 515 480.417969 499.617188 478.566406 483.332031 C 478.265625 480.605469 477.640625 477.621094 479.191406 475.386719 C 480.339844 474 481.789062 473.09375 483.539062 472.664062 C 494.816406 468.929688 507.089844 472.214844 518.503906 475.511719 C 519.980469 475.847656 521.339844 476.441406 522.589844 477.296875 C 525.410156 479.503906 525.667969 483.550781 526.1875 487.078125 C 529.605469 510.640625 555.269531 526.691406 578.957031 524.566406 C 588.789062 523.679688 598.558594 520.152344 605.871094 513.542969 C 613.1875 506.933594 617.789062 497.039062 616.917969 487.203125 C 616.046875 477.363281 609.929688 468.453125 602.304688 461.992188 C 600.460938 460.65625 598.949219 459.019531 597.765625 457.074219 C 594.921875 451.308594 600.207031 445.070312 604.671875 440.449219 C 607.773438 437.183594 610.675781 433.753906 613.382812 430.152344 C 616.085938 426.554688 618.570312 422.808594 620.84375 418.921875 C 623.113281 415.035156 625.152344 411.027344 626.957031 406.902344 C 628.765625 402.777344 630.328125 398.5625 631.648438 394.257812 C 632.964844 389.953125 634.03125 385.585938 634.84375 381.15625 C 635.65625 376.726562 636.210938 372.265625 636.507812 367.773438 C 636.804688 363.28125 636.84375 358.785156 636.617188 354.289062 C 636.394531 349.789062 635.914062 345.320312 635.171875 340.878906 C 634.246094 335.566406 632.9375 330.140625 633.808594 324.828125 C 634.679688 319.511719 637.636719 315 640.144531 310.355469 C 641.613281 307.601562 642.949219 304.789062 644.15625 301.910156 C 645.363281 299.03125 646.429688 296.105469 647.367188 293.128906 C 648.300781 290.152344 649.09375 287.136719 649.746094 284.085938 C 650.398438 281.035156 650.910156 277.960938 651.277344 274.863281 C 651.644531 271.765625 651.867188 268.65625 651.945312 265.539062 C 652.023438 262.417969 651.957031 259.304688 651.746094 256.191406 C 651.535156 253.078125 651.175781 249.980469 650.675781 246.902344 C 650.175781 243.820312 649.535156 240.773438 648.753906 237.753906 C 633.085938 237.464844 625.050781 257.6875 610.203125 262.605469 C 600.53125 265.808594 590.140625 261.898438 580.535156 258.519531 C 535.109375 242.359375 483.117188 237.371094 439.664062 258.273438 C 437.363281 259.390625 434.949219 260.589844 432.402344 260.386719 C 429.855469 260.183594 427.539062 258.546875 425.414062 256.910156 C 407.570312 243.667969 385.519531 233.199219 363.628906 237.234375 " fill-opacity="1" fill-rule="nonzero"/><path fill="#547fdd" d="M 448.761719 588.761719 C 443.898438 582.945312 438.261719 577.617188 431.476562 574.234375 C 415.828125 566.429688 396.0625 570.503906 382.207031 581.1875 C 368.355469 591.867188 359.746094 608.097656 354.558594 624.792969 C 351.34375 635.175781 349.339844 646.390625 351.042969 657.003906 C 351.136719 658.597656 351.289062 660.207031 351.519531 661.816406 C 351.671875 662.863281 351.847656 663.910156 352.054688 664.949219 C 352.261719 665.988281 352.492188 667.023438 352.753906 668.050781 C 353.015625 669.078125 353.304688 670.097656 353.621094 671.109375 C 353.9375 672.121094 354.28125 673.125 354.652344 674.117188 C 355.019531 675.113281 355.417969 676.09375 355.839844 677.066406 C 356.261719 678.039062 356.710938 679 357.1875 679.949219 C 357.660156 680.894531 358.160156 681.832031 358.683594 682.75 C 359.207031 683.671875 359.757812 684.578125 360.332031 685.472656 C 360.902344 686.363281 361.5 687.238281 362.121094 688.097656 C 362.738281 688.957031 363.382812 689.800781 364.046875 690.625 C 364.714844 691.453125 365.402344 692.257812 366.109375 693.046875 C 366.816406 693.835938 367.546875 694.605469 368.296875 695.355469 C 369.046875 696.101562 369.816406 696.832031 370.605469 697.539062 C 371.394531 698.246094 372.203125 698.933594 373.027344 699.597656 C 373.851562 700.261719 374.695312 700.90625 375.554688 701.523438 C 376.417969 702.144531 377.292969 702.738281 378.183594 703.3125 C 379.078125 703.882812 379.984375 704.433594 380.90625 704.957031 C 381.828125 705.480469 382.761719 705.976562 383.710938 706.449219 C 384.660156 706.921875 385.621094 707.371094 386.59375 707.792969 C 387.566406 708.214844 388.546875 708.609375 389.542969 708.980469 C 390.535156 709.347656 391.539062 709.691406 392.550781 710.003906 C 393.5625 710.320312 394.582031 710.609375 395.609375 710.867188 C 396.636719 711.128906 397.667969 711.359375 398.710938 711.566406 C 399.75 711.769531 400.792969 711.949219 401.84375 712.097656 C 402.894531 712.246094 403.945312 712.367188 405 712.457031 C 406.058594 712.550781 407.113281 712.613281 408.171875 712.648438 C 409.234375 712.683594 410.292969 712.691406 411.351562 712.667969 C 412.410156 712.648438 413.46875 712.597656 414.527344 712.519531 C 415.582031 712.441406 416.636719 712.335938 417.6875 712.199219 C 418.742188 712.066406 419.789062 711.902344 420.828125 711.710938 C 421.871094 711.519531 422.910156 711.300781 423.941406 711.054688 C 424.96875 710.808594 425.992188 710.53125 427.007812 710.230469 C 434.222656 707.863281 441.105469 704.765625 447.660156 700.9375 C 454.101562 697.421875 460.695312 693.578125 464.824219 687.5 C 467.613281 683.054688 469.429688 678.238281 470.269531 673.058594 C 470.984375 669.375 471.492188 665.667969 471.796875 661.929688 C 472.097656 658.195312 472.195312 654.453125 472.085938 650.703125 C 471.976562 646.957031 471.660156 643.226562 471.140625 639.515625 C 470.617188 635.800781 469.894531 632.128906 468.96875 628.496094 C 468.039062 624.863281 466.917969 621.292969 465.59375 617.785156 C 464.273438 614.277344 462.765625 610.851562 461.066406 607.511719 C 459.367188 604.167969 457.488281 600.929688 455.429688 597.796875 C 453.375 594.660156 451.152344 591.652344 448.761719 588.761719 Z M 448.761719 588.761719 " fill-opacity="1" fill-rule="nonzero"/><path fill="#547fdd" d="M 651.75 831.234375 C 644.175781 827.351562 639.378906 819.585938 636.085938 811.734375 C 632.582031 803.421875 630.296875 794.402344 631.042969 785.421875 C 631.792969 776.441406 635.921875 767.476562 643.234375 762.257812 C 651.410156 756.410156 661.976562 755.8125 671.976562 755.445312 C 670.207031 743.644531 670.941406 731.203125 676.0625 720.394531 C 681.183594 709.589844 690.949219 700.679688 702.691406 698.523438 C 705.894531 725.941406 696.550781 753.03125 687.355469 779.101562 C 680.433594 798.667969 672.003906 819.980469 653.574219 829.519531 " fill-opacity="1" fill-rule="nonzero"/><path fill="#547fdd" d="M 370.496094 837.96875 C 377.535156 834.792969 384.730469 831.699219 392.289062 830.484375 C 393.867188 830.234375 395.453125 830.0625 397.046875 829.972656 C 398.644531 829.886719 400.238281 829.882812 401.835938 829.957031 C 403.429688 830.035156 405.019531 830.195312 406.597656 830.4375 C 408.179688 830.679688 409.742188 831.003906 411.285156 831.40625 C 412.832031 831.8125 414.351562 832.296875 415.847656 832.859375 C 417.34375 833.417969 418.808594 834.058594 420.238281 834.773438 C 421.667969 835.484375 423.054688 836.273438 424.402344 837.128906 C 425.75 837.988281 427.050781 838.914062 428.304688 839.90625 C 429.554688 840.898438 430.753906 841.957031 431.894531 843.074219 C 433.039062 844.191406 434.121094 845.363281 435.140625 846.59375 C 436.160156 847.824219 437.117188 849.101562 438.003906 850.429688 C 438.890625 851.757812 439.710938 853.128906 440.457031 854.542969 C 441.203125 855.957031 441.871094 857.40625 442.46875 858.890625 C 443.066406 860.371094 443.582031 861.882812 444.019531 863.417969 C 444.460938 864.957031 444.820312 866.511719 445.097656 868.085938 C 445.375 869.660156 445.570312 871.242188 445.683594 872.835938 C 418.5625 864.253906 393.082031 852.199219 369.242188 836.671875 " fill-opacity="1" fill-rule="nonzero"/><path fill="#547fdd" d="M 377.535156 522.183594 C 376.871094 523.542969 374.8125 522.6875 373.722656 521.71875 L 341.875 494.710938 C 339.804688 498.117188 339.152344 502.164062 338.566406 506.101562 C 335.5 528.273438 331.007812 552.230469 335.417969 574.167969 C 345.078125 562.121094 359.9375 548.796875 369.582031 536.734375 C 373.207031 532.210938 377.402344 527.359375 383.203125 526.542969 C 371.289062 518.59375 359.523438 510.417969 347.910156 502.015625 " fill-opacity="1" fill-rule="nonzero"/><path fill="#547fdd" d="M 627.039062 529.035156 C 626.207031 528.792969 626.617188 527.347656 627.476562 527.195312 C 628.398438 527.1875 629.160156 527.53125 629.765625 528.230469 C 645.683594 542.324219 659.46875 558.261719 671.117188 576.046875 C 675.019531 556.203125 676.699219 536.171875 676.160156 515.953125 C 676.023438 510.816406 675.722656 505.558594 673.761719 500.800781 C 673.425781 499.800781 672.851562 498.960938 672.042969 498.28125 C 670.125 496.917969 667.453125 497.953125 665.382812 499.140625 C 659.601562 502.464844 654.207031 506.332031 649.207031 510.746094 C 644.203125 515.160156 639.695312 520.03125 635.675781 525.355469 " fill-opacity="1" fill-rule="nonzero"/><path fill="#547fdd" d="M 481.167969 244.648438 C 482.871094 268.507812 485.089844 293.621094 498.632812 313.339844 C 498.867188 313.804688 499.1875 314.203125 499.59375 314.535156 C 500 314.863281 500.457031 315.097656 500.960938 315.234375 C 502.320312 315.4375 503.425781 314.144531 504.175781 312.972656 C 508.257812 306.683594 511.4375 299.964844 513.710938 292.816406 C 517.292969 281.464844 518.394531 269.503906 519.457031 257.648438 C 519.867188 253.054688 520.195312 248.109375 517.769531 244.183594 C 515.34375 240.257812 509.011719 238.554688 506.164062 242.179688 " fill-opacity="1" fill-rule="nonzero"/><path fill="#547fdd" d="M 427.539062 263.617188 C 430.992188 270.46875 435.015625 276.964844 439.609375 283.105469 C 444.207031 289.246094 449.304688 294.933594 454.90625 300.175781 C 456.894531 302.027344 460.191406 303.785156 461.988281 301.757812 C 462.652344 300.828125 462.96875 299.792969 462.941406 298.648438 C 463.585938 290.199219 463.496094 281.757812 462.671875 273.320312 C 461.84375 264.886719 460.296875 256.585938 458.027344 248.421875 " fill-opacity="1" fill-rule="nonzero"/><path fill="#547fdd" d="M 541.15625 247.617188 L 538.882812 273.261719 C 538.078125 282.257812 537.371094 291.769531 541.332031 299.890625 C 542 301.253906 543.117188 302.75 544.644531 302.613281 C 545.882812 302.546875 546.78125 301.457031 547.519531 300.460938 C 554.300781 291.25 560.960938 281.949219 567.5 272.554688 C 570.019531 268.945312 572.621094 264.949219 572.335938 260.5625 " fill-opacity="1" fill-rule="nonzero"/><path fill="#547fdd" d="M 578.75 256.53125 L 596.023438 266.980469 C 597.140625 267.804688 598.390625 268.289062 599.769531 268.4375 C 602.113281 268.4375 603.964844 266.546875 605.449219 264.71875 C 612.574219 255.929688 619.464844 246.011719 629.886719 241.71875 C 631.347656 241.292969 632.621094 240.542969 633.699219 239.46875 C 635.6875 236.960938 633.617188 232.929688 630.59375 231.851562 C 627.570312 230.773438 624.261719 231.703125 621.210938 232.710938 C 609.230469 236.671875 597.714844 241.703125 586.664062 247.796875 " fill-opacity="1" fill-rule="nonzero"/><path fill="#547fdd" d="M 369.269531 237.601562 C 372.691406 239.113281 375.964844 240.898438 379.082031 242.964844 C 382.203125 245.03125 385.125 247.347656 387.851562 249.910156 C 390.578125 252.472656 393.066406 255.25 395.320312 258.234375 C 397.574219 261.222656 399.5625 264.378906 401.277344 267.703125 C 401.90625 268.957031 402.738281 270.429688 404.125 270.523438 C 405.191406 270.480469 406.097656 270.082031 406.851562 269.324219 L 421.398438 257.988281 C 421.785156 257.753906 422.046875 257.421875 422.1875 256.992188 C 422.296875 256.378906 424.066406 253.585938 423.550781 253.191406 C 409.929688 242.042969 391.050781 236.921875 373.683594 234.304688 " fill-opacity="1" fill-rule="nonzero"/><path fill="#547fdd" d="M 403.664062 467.605469 C 405.410156 467.449219 407.160156 467.375 408.910156 467.386719 C 410.664062 467.398438 412.414062 467.496094 414.15625 467.679688 C 415.902344 467.863281 417.632812 468.132812 419.351562 468.484375 C 421.066406 468.839844 422.765625 469.277344 424.4375 469.792969 C 426.113281 470.3125 427.757812 470.914062 429.375 471.59375 C 430.992188 472.273438 432.570312 473.03125 434.113281 473.867188 C 435.65625 474.699219 437.152344 475.609375 438.605469 476.589844 C 440.058594 477.570312 441.460938 478.621094 442.8125 479.742188 C 444.164062 480.859375 445.457031 482.042969 446.691406 483.285156 C 447.925781 484.53125 449.097656 485.835938 450.203125 487.195312 C 451.3125 488.554688 452.351562 489.964844 453.320312 491.425781 C 454.289062 492.886719 455.183594 494.394531 456.007812 495.941406 C 456.828125 497.492188 457.574219 499.078125 458.242188 500.699219 C 458.90625 502.324219 459.496094 503.972656 460 505.652344 C 460.503906 507.332031 460.925781 509.035156 461.265625 510.753906 C 461.605469 512.476562 461.859375 514.207031 462.03125 515.953125 C 471.78125 506.417969 477.53125 492.351562 475.367188 478.875 C 475.214844 477.519531 474.792969 476.25 474.097656 475.074219 C 472.640625 472.921875 469.902344 472.132812 467.398438 471.4375 C 454.054688 467.753906 441.222656 462.753906 428.902344 456.445312 C 425.238281 454.566406 421.125 452.523438 417.1875 453.722656 C 413.253906 454.921875 410.078125 459.554688 405.773438 459.375 L 405.609375 464.214844 " fill-opacity="1" fill-rule="nonzero"/><path fill="#547fdd" d="M 540.707031 507.792969 C 540.421875 507.492188 540.246094 508.378906 540.707031 508.378906 C 541.171875 508.378906 541.347656 507.902344 541.46875 507.507812 C 542.488281 504.195312 543.8125 501.011719 545.445312 497.957031 C 547.074219 494.902344 548.984375 492.03125 551.171875 489.347656 C 553.359375 486.660156 555.78125 484.210938 558.441406 481.992188 C 561.101562 479.773438 563.949219 477.832031 566.984375 476.164062 C 570.027344 474.527344 573.1875 473.160156 576.46875 472.0625 C 579.746094 470.964844 583.09375 470.152344 586.507812 469.625 C 589.925781 469.101562 593.363281 468.867188 596.820312 468.929688 C 600.277344 468.992188 603.703125 469.34375 607.097656 469.992188 C 604.714844 465.671875 602.152344 461.160156 597.984375 458.519531 C 591.269531 454.28125 582.496094 456.078125 574.964844 458.628906 C 565.429688 461.855469 556.152344 466.066406 546.210938 467.675781 C 542.410156 468.289062 538.390625 468.574219 535.175781 470.699219 C 530.476562 473.808594 528.828125 480.171875 529.726562 485.691406 C 530.628906 491.207031 533.652344 496.210938 536.539062 501.019531 " fill-opacity="1" fill-rule="nonzero"/><path fill="#ff1a6c" d="M 415.378906 385.382812 C 417.539062 386.058594 419.742188 386.554688 421.984375 386.867188 C 424.226562 387.179688 426.480469 387.308594 428.746094 387.253906 C 431.011719 387.199219 433.253906 386.960938 435.480469 386.535156 C 437.703125 386.113281 439.878906 385.511719 442.007812 384.730469 C 443.695312 384.101562 445.671875 382.710938 445.152344 380.980469 C 444.902344 380.355469 444.503906 379.847656 443.953125 379.457031 C 438.316406 374.753906 430.332031 374.101562 423.03125 374.726562 C 420.695312 374.78125 418.492188 375.351562 416.425781 376.445312 C 415.921875 376.722656 415.464844 377.066406 415.0625 377.476562 C 414.65625 377.886719 414.320312 378.347656 414.054688 378.859375 C 413.785156 379.367188 413.597656 379.90625 413.488281 380.472656 C 413.378906 381.039062 413.355469 381.609375 413.414062 382.179688 C 413.625 383.03125 414.007812 383.796875 414.5625 384.472656 C 415.121094 385.148438 415.796875 385.667969 416.589844 386.039062 C 418.179688 386.761719 419.84375 387.175781 421.589844 387.277344 C 427.199219 387.867188 432.769531 387.605469 438.300781 386.5 C 439.925781 386.273438 441.421875 385.714844 442.796875 384.824219 C 443.480469 384.363281 443.992188 383.753906 444.335938 383 C 444.675781 382.246094 444.792969 381.460938 444.691406 380.640625 C 444.4375 379.863281 444.03125 379.175781 443.472656 378.574219 C 442.917969 377.972656 442.261719 377.519531 441.503906 377.207031 C 434.800781 373.691406 426.722656 374.796875 419.257812 376.007812 C 417.367188 376.308594 415.171875 376.90625 414.558594 378.734375 C 414.511719 378.953125 414.492188 379.171875 414.5 379.394531 C 414.507812 379.617188 414.542969 379.835938 414.601562 380.046875 C 414.664062 380.261719 414.75 380.464844 414.859375 380.660156 C 414.972656 380.851562 415.101562 381.027344 415.257812 381.1875 C 415.410156 381.351562 415.582031 381.488281 415.769531 381.609375 C 415.957031 381.726562 416.15625 381.820312 416.367188 381.890625 C 416.578125 381.960938 416.796875 382.003906 417.015625 382.019531 C 417.238281 382.039062 417.460938 382.027344 417.679688 381.992188 " fill-opacity="1" fill-rule="nonzero"/><path fill="#ff1a6c" d="M 590.765625 385.382812 C 588.605469 386.058594 586.402344 386.554688 584.15625 386.867188 C 581.914062 387.179688 579.660156 387.308594 577.398438 387.253906 C 575.132812 387.199219 572.886719 386.960938 570.664062 386.535156 C 568.4375 386.113281 566.261719 385.511719 564.136719 384.730469 C 562.445312 384.101562 560.457031 382.710938 560.976562 380.980469 C 561.226562 380.351562 561.632812 379.84375 562.1875 379.457031 C 567.828125 374.753906 575.808594 374.101562 583.109375 374.726562 C 585.449219 374.78125 587.648438 375.351562 589.71875 376.445312 C 590.222656 376.722656 590.675781 377.066406 591.078125 377.476562 C 591.480469 377.886719 591.816406 378.347656 592.082031 378.859375 C 592.351562 379.371094 592.539062 379.90625 592.644531 380.472656 C 592.753906 381.039062 592.773438 381.609375 592.714844 382.179688 C 592.507812 383.03125 592.125 383.796875 591.570312 384.472656 C 591.011719 385.148438 590.335938 385.671875 589.539062 386.039062 C 587.949219 386.761719 586.285156 387.175781 584.539062 387.277344 C 578.921875 387.867188 573.339844 387.609375 567.800781 386.5 C 566.179688 386.273438 564.679688 385.714844 563.304688 384.824219 C 562.621094 384.359375 562.113281 383.753906 561.773438 383 C 561.433594 382.246094 561.320312 381.460938 561.425781 380.640625 C 561.671875 379.863281 562.074219 379.171875 562.628906 378.570312 C 563.1875 377.972656 563.84375 377.515625 564.597656 377.207031 C 571.300781 373.691406 579.378906 374.796875 586.855469 376.007812 C 588.75 376.308594 590.941406 376.90625 591.554688 378.734375 C 591.601562 378.953125 591.621094 379.171875 591.613281 379.394531 C 591.609375 379.617188 591.574219 379.835938 591.511719 380.050781 C 591.453125 380.265625 591.367188 380.472656 591.253906 380.664062 C 591.144531 380.859375 591.011719 381.035156 590.855469 381.195312 C 590.699219 381.355469 590.527344 381.496094 590.339844 381.613281 C 590.152344 381.734375 589.949219 381.828125 589.738281 381.898438 C 589.527344 381.964844 589.308594 382.007812 589.085938 382.023438 C 588.863281 382.039062 588.644531 382.027344 588.421875 381.992188 " fill-opacity="1" fill-rule="nonzero"/><path fill="#233356" d="M 426.722656 354.777344 C 428.890625 349.421875 438.070312 348.605469 442.960938 348.753906 C 449.128906 348.933594 454.035156 350.988281 457.945312 355.9375 C 463.242188 362.75 472.710938 353.210938 467.480469 346.398438 C 454.851562 330.046875 421.984375 330.972656 413.824219 351.179688 C 410.488281 359.21875 423.507812 362.722656 426.722656 354.777344 Z M 426.722656 354.777344 " fill-opacity="1" fill-rule="nonzero"/><path fill="#233356" d="M 453.777344 422.625 C 450.464844 424.820312 466.976562 439.808594 475.011719 439.742188 C 486.425781 439.644531 497.867188 434.726562 503.96875 425.757812 C 509.417969 433.8125 519.253906 438.609375 529.46875 439.5625 C 538.625 440.421875 557.816406 426.019531 555.351562 423.648438 C 555.042969 423.316406 554.707031 423.019531 554.339844 422.753906 C 553.976562 422.488281 553.589844 422.257812 553.183594 422.0625 C 552.777344 421.867188 552.355469 421.714844 551.917969 421.597656 C 551.480469 421.484375 551.039062 421.410156 550.585938 421.378906 C 550.136719 421.347656 549.6875 421.359375 549.238281 421.414062 C 548.792969 421.464844 548.351562 421.558594 547.921875 421.695312 C 547.492188 421.832031 547.078125 422.007812 546.679688 422.21875 C 546.28125 422.433594 545.90625 422.683594 545.554688 422.964844 C 535.066406 431.46875 512.621094 425.023438 512.863281 410.183594 C 516.363281 408.53125 519.722656 406.632812 522.945312 404.488281 C 530.207031 399.800781 523.460938 388.136719 516.132812 392.851562 C 513.550781 394.472656 510.855469 395.890625 508.058594 397.101562 C 506.871094 397.515625 505.71875 398.007812 504.597656 398.574219 C 504.355469 398.730469 504.105469 398.871094 503.847656 398.996094 C 499.289062 397.582031 494.925781 395.710938 490.757812 393.382812 C 483.375 388.789062 476.605469 400.441406 483.945312 405.007812 C 487.410156 407.1875 491.042969 409.03125 494.84375 410.539062 C 494.707031 425.078125 472.558594 431.402344 462.152344 422.964844 C 461.566406 422.492188 460.917969 422.125 460.210938 421.859375 C 459.503906 421.59375 458.773438 421.445312 458.019531 421.417969 C 457.265625 421.386719 456.527344 421.472656 455.800781 421.679688 C 455.074219 421.886719 454.398438 422.203125 453.777344 422.625 Z M 503.683594 399.09375 C 502.921875 399.390625 502.933594 399.09375 503.683594 399.09375 Z M 503.683594 399.09375 " fill-opacity="1" fill-rule="nonzero"/><path fill="#233356" d="M 452.167969 672.757812 C 460.832031 673.191406 451.175781 659.226562 450.671875 659.199219 C 450.804688 644.46875 450.179688 628.972656 442.226562 616.097656 C 435.074219 604.515625 422.582031 596.664062 408.675781 598.382812 C 394.453125 600.167969 386.757812 612.007812 381.800781 624.273438 C 380.402344 627.867188 379.292969 631.546875 378.464844 635.316406 C 377.640625 639.082031 377.113281 642.890625 376.882812 646.742188 C 376.652344 650.589844 376.71875 654.433594 377.085938 658.273438 C 377.457031 662.113281 378.117188 665.902344 379.074219 669.636719 C 377.578125 670.46875 374.117188 688.644531 381.433594 683.929688 C 402.585938 670.359375 427.992188 671.515625 452.167969 672.757812 Z M 452.167969 672.757812 " fill-opacity="1" fill-rule="nonzero"/><path fill="#233356" d="M 447.03125 758.890625 C 446.140625 758.890625 445.277344 759.058594 444.453125 759.402344 C 443.625 759.746094 442.898438 760.234375 442.265625 760.867188 C 441.644531 761.503906 441.164062 762.234375 440.820312 763.054688 C 440.480469 763.878906 440.304688 764.734375 440.289062 765.621094 L 440.289062 766.128906 C 440.300781 767.019531 440.476562 767.875 440.816406 768.695312 C 441.160156 769.519531 441.640625 770.246094 442.265625 770.882812 C 442.578125 771.195312 442.917969 771.476562 443.285156 771.722656 C 443.65625 771.96875 444.042969 772.179688 444.453125 772.347656 C 444.859375 772.519531 445.28125 772.648438 445.71875 772.734375 C 446.152344 772.820312 446.589844 772.863281 447.03125 772.863281 C 447.476562 772.863281 447.914062 772.820312 448.347656 772.734375 C 448.785156 772.648438 449.207031 772.519531 449.613281 772.347656 C 450.023438 772.179688 450.410156 771.96875 450.78125 771.722656 C 451.148438 771.476562 451.488281 771.195312 451.800781 770.882812 C 452.421875 770.246094 452.902344 769.515625 453.246094 768.695312 C 453.585938 767.871094 453.761719 767.015625 453.777344 766.128906 L 453.777344 765.621094 C 453.765625 764.734375 453.589844 763.875 453.25 763.054688 C 452.90625 762.230469 452.425781 761.503906 451.800781 760.867188 C 451.167969 760.238281 450.4375 759.753906 449.609375 759.410156 C 448.785156 759.066406 447.925781 758.894531 447.03125 758.890625 Z M 447.03125 758.890625 " fill-opacity="1" fill-rule="nonzero"/><path fill="#233356" d="M 470.476562 765.867188 C 479.140625 765.867188 479.152344 752.40625 470.476562 752.40625 C 461.796875 752.40625 461.785156 765.867188 470.476562 765.867188 Z M 470.476562 765.867188 " fill-opacity="1" fill-rule="nonzero"/><path fill="#233356" d="M 452.507812 750.402344 C 461.1875 750.402344 461.199219 736.925781 452.507812 736.925781 C 443.820312 736.925781 443.832031 750.402344 452.507812 750.402344 Z M 452.507812 750.402344 " fill-opacity="1" fill-rule="nonzero"/><path fill="#233356" d="M 550.078125 355.9375 C 550.941406 354.785156 551.929688 353.75 553.039062 352.832031 C 554.152344 351.917969 555.355469 351.148438 556.652344 350.523438 C 557.949219 349.898438 559.300781 349.4375 560.710938 349.136719 C 562.117188 348.839844 563.542969 348.710938 564.980469 348.753906 C 570.019531 348.660156 579.011719 349.3125 581.21875 354.777344 C 584.433594 362.707031 597.46875 359.234375 594.210938 351.195312 C 586.039062 330.972656 553.171875 330.128906 540.558594 346.410156 C 535.300781 353.183594 544.765625 362.789062 550.078125 355.9375 Z M 550.078125 355.9375 " fill-opacity="1" fill-rule="nonzero"/><g clip-path="url(#edf027e055)"><path fill="#233356" d="M 723.628906 545.796875 C 727.183594 521.8125 729.8125 495.949219 725.113281 471.953125 C 723.003906 461.242188 718.726562 448.691406 710.867188 440.722656 C 702.691406 432.546875 689.371094 434.523438 679.03125 436.359375 C 656.203125 440.449219 635.960938 453.40625 618.769531 468.574219 C 616.761719 465.316406 614.414062 462.328125 611.722656 459.605469 C 609.03125 456.882812 606.070312 454.5 602.835938 452.453125 C 609.367188 447.855469 615.242188 442.535156 620.464844 436.488281 C 625.6875 430.445312 630.097656 423.855469 633.699219 416.726562 C 635.425781 413.257812 636.976562 409.714844 638.359375 406.097656 C 639.742188 402.480469 640.945312 398.808594 641.976562 395.074219 C 643.003906 391.339844 643.851562 387.566406 644.515625 383.753906 C 645.179688 379.9375 645.660156 376.101562 645.957031 372.238281 C 646.25 368.378906 646.359375 364.511719 646.28125 360.640625 C 646.207031 356.769531 645.941406 352.910156 645.492188 349.066406 C 645.042969 345.21875 644.410156 341.402344 643.59375 337.617188 C 642.777344 333.832031 641.78125 330.097656 640.605469 326.40625 C 645.359375 319.652344 649.320312 312.464844 652.488281 304.835938 C 655.660156 297.210938 657.957031 289.328125 659.390625 281.195312 C 661.898438 266.574219 663.640625 246.855469 656.433594 233.214844 C 648.644531 218.429688 628.742188 222.84375 615.488281 226.222656 C 607.59375 228.296875 600.042969 231.25 592.835938 235.078125 C 585.628906 238.90625 578.953125 243.507812 572.8125 248.886719 L 572.402344 248.707031 C 560.890625 244.023438 549.027344 240.53125 536.8125 238.230469 C 526.253906 236.144531 514.757812 233.445312 503.96875 233.445312 C 493.183594 233.445312 481.660156 236.171875 471.128906 238.230469 C 458.929688 240.542969 447.078125 244.042969 435.578125 248.734375 L 435.15625 248.914062 C 429.167969 243.664062 422.671875 239.148438 415.664062 235.371094 C 408.65625 231.59375 401.3125 228.648438 393.636719 226.539062 C 380.125 222.84375 359.582031 218.15625 351.507812 233.171875 C 344.410156 246.40625 346.058594 265.714844 348.359375 279.941406 C 349.730469 288.300781 352.019531 296.40625 355.222656 304.25 C 358.429688 312.09375 362.472656 319.480469 367.347656 326.40625 C 365.285156 332.804688 363.773438 339.328125 362.8125 345.980469 C 361.847656 352.632812 361.449219 359.320312 361.613281 366.039062 C 361.773438 372.757812 362.496094 379.417969 363.78125 386.015625 C 365.0625 392.613281 366.886719 399.054688 369.253906 405.347656 C 375.222656 420.882812 384.332031 435.625 396.867188 446.703125 C 399.320312 448.871094 401.890625 450.890625 404.574219 452.769531 C 398.296875 456.882812 393.195312 462.136719 389.265625 468.535156 C 372.0625 453.367188 351.820312 440.367188 328.992188 436.308594 C 318.625 434.46875 305.289062 432.421875 297.144531 440.667969 C 289.269531 448.652344 285.007812 461.175781 282.910156 471.898438 C 278.128906 495.910156 280.757812 521.746094 284.378906 545.796875 C 288.195312 571.539062 295.984375 596.773438 310.425781 618.617188 C 310.722656 619.054688 311.058594 619.460938 311.433594 619.832031 C 294.011719 669.1875 292.363281 723.585938 308.039062 773.8125 C 312.261719 787.332031 317.371094 801.351562 325.339844 813.167969 C 333.050781 824.570312 343.25 833.757812 354.339844 841.78125 C 366.191406 850.464844 378.664062 858.132812 391.757812 864.796875 C 404.851562 871.457031 418.394531 877.023438 432.390625 881.492188 C 453.175781 887.976562 474.070312 890.265625 495.703125 890.511719 C 515.765625 890.742188 535.585938 890.878906 555.324219 886.820312 C 583.667969 881 610.734375 868.980469 635.363281 853.9375 C 659.988281 838.894531 680.886719 821.777344 692.339844 794.714844 C 715.742188 739.296875 716.449219 676.175781 696.5625 619.789062 C 696.945312 619.417969 697.289062 619.007812 697.585938 618.5625 C 712.089844 596.71875 719.828125 571.484375 723.628906 545.796875 Z M 612.355469 492.652344 C 612.304688 493.347656 612.21875 494.039062 612.097656 494.722656 C 609.183594 491.234375 596.214844 481.847656 593.804688 484.257812 C 591.078125 486.984375 601.324219 502.75 605.082031 507.234375 C 602.742188 509.246094 600.195312 510.949219 597.441406 512.34375 C 594.691406 513.738281 591.8125 514.78125 588.804688 515.476562 C 586.878906 509.925781 584.964844 504.386719 583.054688 498.851562 C 580.238281 490.675781 573.453125 512.222656 575.15625 517.125 C 565.429688 517.261719 555.417969 515.246094 547.355469 510.3125 C 536.960938 503.910156 529.375 490.378906 534.671875 478.289062 C 534.804688 477.972656 534.917969 477.652344 535.011719 477.324219 C 538.867188 476.792969 542.695312 476.164062 546.441406 475.429688 C 561.546875 472.621094 575.925781 467.699219 589.582031 460.65625 C 590.1875 461.117188 590.847656 461.472656 591.570312 461.71875 C 602.847656 465.632812 613.078125 480.59375 612.355469 492.652344 Z M 615.542969 240.246094 C 621.167969 238.539062 626.90625 237.414062 632.761719 236.867188 C 620.105469 244.15625 609.085938 252.511719 599.890625 264.527344 C 595.515625 261.164062 590.921875 258.136719 586.105469 255.441406 C 594.964844 248.515625 604.777344 243.433594 615.542969 240.191406 Z M 392.398438 240.246094 C 403.160156 243.46875 412.972656 248.535156 421.832031 255.441406 C 417.019531 258.140625 412.425781 261.167969 408.046875 264.527344 C 398.800781 252.457031 387.902344 244.101562 375.179688 236.8125 C 381.035156 237.359375 386.773438 238.484375 392.398438 240.191406 Z M 397.847656 428.292969 C 394.722656 424.566406 391.910156 420.613281 389.414062 416.4375 C 392.355469 414.953125 404.167969 407.9375 403.144531 404.175781 C 402.230469 400.878906 398.296875 398.234375 394.863281 399.472656 C 390.914062 400.890625 387.066406 402.535156 383.3125 404.40625 C 381.429688 400.003906 379.867188 395.488281 378.625 390.863281 C 384.6875 389.265625 401.632812 370.84375 393.230469 373.066406 L 378.246094 377.015625 C 377.449219 376.777344 376.636719 376.683594 375.808594 376.730469 C 374.910156 369.75 374.699219 362.75 375.171875 355.730469 C 375.644531 348.710938 376.789062 341.800781 378.613281 335.003906 C 380.273438 328.820312 385.53125 310.136719 383.066406 308.269531 C 380.109375 306.050781 375.726562 305.941406 373.667969 310.207031 C 373.574219 310.394531 373.503906 310.585938 373.410156 310.777344 C 362.5 291.332031 357.324219 268.125 361.449219 246.011719 C 361.53125 245.574219 361.613281 245.152344 361.695312 244.757812 C 375.792969 252.113281 388.3125 260.128906 397.941406 273.371094 C 393.855469 277.460938 393.308594 300.777344 398.226562 293.691406 C 409.125 277.910156 425.6875 266.859375 443.421875 259.992188 C 453.613281 256.167969 464.054688 253.257812 474.753906 251.257812 C 484.164062 249.390625 494.410156 246.949219 504.011719 246.949219 C 513.613281 246.949219 523.859375 249.390625 533.269531 251.257812 C 543.96875 253.25 554.410156 256.160156 564.597656 259.992188 C 582.308594 266.871094 598.855469 277.910156 609.808594 293.691406 C 614.710938 300.761719 614.222656 277.488281 610.082031 273.371094 C 619.710938 260.15625 632.230469 252.140625 646.328125 244.757812 C 646.421875 245.152344 646.503906 245.574219 646.585938 246.011719 C 650.671875 268.113281 645.539062 291.332031 634.546875 310.792969 C 634.464844 310.613281 634.382812 310.421875 634.285156 310.234375 C 634.136719 309.875 633.957031 309.539062 633.738281 309.21875 C 633.523438 308.902344 633.277344 308.609375 633 308.339844 C 632.722656 308.070312 632.421875 307.835938 632.09375 307.628906 C 631.769531 307.421875 631.425781 307.25 631.066406 307.113281 C 630.707031 306.976562 630.335938 306.878906 629.953125 306.820312 C 629.574219 306.761719 629.191406 306.738281 628.804688 306.757812 C 628.421875 306.777344 628.042969 306.835938 627.667969 306.929688 C 627.296875 307.027344 626.9375 307.160156 626.589844 307.328125 C 623.15625 308.691406 628.238281 330.671875 629.953125 337.800781 C 633.027344 350.683594 633.710938 363.691406 632.011719 376.824219 C 631.199219 376.785156 630.40625 376.878906 629.628906 377.113281 L 614.644531 373.160156 C 606.253906 370.9375 623.15625 389.347656 629.207031 390.957031 C 628.226562 394.65625 627.050781 398.289062 625.675781 401.859375 C 625.324219 402.757812 624.957031 403.671875 624.585938 404.582031 C 620.824219 402.710938 616.964844 401.0625 613.007812 399.636719 C 609.578125 398.398438 605.625 401 604.714844 404.339844 C 603.691406 408.085938 615.609375 415.089844 618.511719 416.601562 C 616.03125 420.78125 613.234375 424.738281 610.121094 428.472656 C 607.507812 427.109375 594.988281 423.144531 593.4375 426.113281 C 591.554688 429.65625 592.824219 433.050781 595.847656 435.324219 C 597.207031 436.414062 598.773438 437.398438 600.300781 438.351562 L 599.621094 438.9375 C 586.636719 449.578125 569.542969 455.804688 553.496094 460.042969 C 537.960938 463.960938 522.183594 465.726562 506.164062 465.34375 C 492.746094 465.195312 479.65625 465.222656 466.402344 462.742188 C 449.722656 459.789062 433.949219 454.25 419.082031 446.132812 C 415.0625 443.820312 411.289062 441.160156 407.761719 438.144531 C 409.234375 437.21875 410.675781 436.253906 412.066406 435.203125 C 413.457031 434.152344 415.417969 427.421875 414.492188 425.992188 C 412.707031 423.15625 400.476562 426.863281 397.902344 428.265625 Z M 416.371094 461.625 C 416.980469 461.410156 417.554688 461.117188 418.085938 460.753906 C 426.9375 465.117188 436.097656 468.667969 445.574219 471.410156 C 454.550781 474.046875 463.671875 476 472.941406 477.269531 C 473.039062 477.582031 473.152344 477.890625 473.28125 478.195312 C 478.566406 490.28125 470.980469 503.8125 460.585938 510.21875 C 452.523438 515.191406 442.511719 517.207031 432.796875 517.03125 C 434.488281 512.125 436.179688 507.222656 437.878906 502.328125 C 440.710938 494.152344 421.058594 509.835938 419.136719 515.382812 C 416.136719 514.695312 413.261719 513.65625 410.511719 512.269531 C 407.765625 510.882812 405.222656 509.183594 402.886719 507.179688 C 406.644531 502.695312 416.890625 486.945312 414.152344 484.203125 C 411.738281 481.75 398.800781 491.179688 395.84375 494.667969 C 395.726562 493.984375 395.644531 493.292969 395.597656 492.597656 C 394.863281 480.59375 405.09375 465.632812 416.371094 461.625 Z M 689.507812 641.632812 C 692.289062 652.03125 694.335938 662.574219 695.652344 673.257812 C 696.964844 683.941406 697.53125 694.664062 697.351562 705.425781 C 697.167969 716.191406 696.242188 726.886719 694.570312 737.523438 C 692.898438 748.15625 690.5 758.621094 687.367188 768.921875 C 683.28125 782.234375 678.363281 795.847656 670.328125 807.320312 C 662.824219 818.03125 652.417969 826.398438 641.722656 833.714844 C 619.453125 848.894531 595.21875 861.527344 569.351562 869.308594 C 550.011719 875.113281 531.144531 876.964844 511.109375 877.046875 C 493.535156 877.117188 475.855469 877.390625 458.515625 874.105469 C 432.089844 869.117188 407.109375 858.570312 384.007812 844.972656 C 360.019531 830.855469 338.648438 814.992188 327.628906 788.570312 C 307.90625 741.367188 305.398438 687.335938 319.457031 638.1875 C 322.015625 629.207031 328.527344 604.40625 325.761719 602.632812 C 322.996094 600.863281 319.359375 600.902344 317.492188 604.335938 C 297.972656 570.269531 292.035156 526.910156 294.335938 488.402344 C 294.949219 478.25 296.734375 467.878906 301.269531 458.695312 C 304.226562 452.714844 306.71875 448.339844 313.910156 448.3125 C 319.394531 448.3125 324.796875 448.972656 330.121094 450.289062 C 350.554688 455.152344 368.261719 467.445312 383.570312 481.519531 C 382.789062 484.375 382.335938 487.28125 382.207031 490.242188 C 382.136719 492.453125 382.28125 494.648438 382.644531 496.828125 C 383.007812 499.011719 383.578125 501.136719 384.363281 503.203125 C 385.144531 505.273438 386.121094 507.242188 387.292969 509.117188 C 388.460938 510.996094 389.804688 512.738281 391.320312 514.347656 C 388.324219 515.859375 385.480469 517.621094 382.792969 519.632812 C 372.898438 509.613281 362.34375 500.347656 351.125 491.835938 C 346.847656 488.59375 341.316406 482.636719 335.460938 483.058594 C 329.304688 483.523438 327.902344 489.109375 327.152344 494.234375 C 326.070312 501.648438 325.433594 509.101562 325.242188 516.59375 C 325.050781 524.082031 325.304688 531.558594 326.007812 539.019531 C 326.707031 546.480469 327.851562 553.871094 329.433594 561.195312 C 331.015625 568.519531 333.03125 575.722656 335.472656 582.808594 C 338.28125 590.984375 340.28125 550.527344 339.109375 535.632812 C 338.535156 528.34375 338.40625 521.050781 338.714844 513.746094 C 338.878906 510.109375 339.136719 506.457031 339.519531 502.847656 C 339.613281 501.960938 339.75 501.089844 339.859375 500.203125 C 340.992188 501.035156 342.121094 501.835938 343.238281 502.683594 C 347.125 505.609375 350.917969 508.652344 354.613281 511.8125 C 360.90625 517.152344 366.871094 522.796875 372.703125 528.65625 C 370.589844 530.875 368.613281 533.191406 366.722656 535.550781 C 361.394531 542.28125 392.207031 527.222656 403.691406 523.941406 C 407.546875 526.003906 411.609375 527.535156 415.867188 528.53125 C 434.433594 532.878906 456.621094 530.601562 472.042969 518.667969 C 484.4375 509.058594 490.445312 493.660156 487.285156 478.835938 C 498.429688 479.65625 509.578125 479.65625 520.726562 478.835938 C 520.363281 480.640625 520.125 482.464844 520.011719 484.304688 C 519.902344 486.144531 519.917969 487.984375 520.0625 489.820312 C 520.203125 491.65625 520.472656 493.476562 520.871094 495.277344 C 521.265625 497.078125 521.78125 498.839844 522.421875 500.570312 C 523.058594 502.296875 523.816406 503.976562 524.6875 505.597656 C 525.558594 507.222656 526.535156 508.777344 527.621094 510.265625 C 528.707031 511.753906 529.894531 513.160156 531.175781 514.488281 C 532.453125 515.8125 533.820312 517.039062 535.273438 518.175781 C 550.691406 530.589844 573.332031 532.988281 592.140625 528.574219 C 596.398438 527.570312 600.457031 526.042969 604.320312 523.996094 C 615.816406 527.277344 646.546875 542.324219 641.273438 535.589844 C 639.40625 533.234375 637.40625 530.917969 635.292969 528.695312 C 641.097656 522.835938 647.105469 517.195312 653.382812 511.851562 C 656.625 509.128906 659.925781 506.460938 663.285156 503.855469 C 664.878906 502.628906 666.515625 501.429688 668.136719 500.242188 C 668.246094 501.128906 668.378906 502 668.476562 502.886719 C 668.855469 506.511719 669.128906 510.164062 669.28125 513.789062 C 669.59375 521.089844 669.46875 528.386719 668.898438 535.671875 C 667.726562 550.566406 669.714844 591.011719 672.535156 582.847656 C 674.976562 575.765625 676.988281 568.558594 678.570312 561.234375 C 680.152344 553.914062 681.292969 546.519531 681.996094 539.058594 C 682.695312 531.597656 682.949219 524.125 682.753906 516.632812 C 682.5625 509.140625 681.925781 501.6875 680.84375 494.273438 C 680.148438 489.464844 679.019531 484.21875 673.433594 483.222656 C 667.550781 482.1875 662.238281 487.828125 657.960938 491.046875 C 646.363281 499.785156 635.464844 509.324219 625.269531 519.660156 C 622.578125 517.664062 619.738281 515.898438 616.753906 514.375 C 618.199219 512.832031 619.484375 511.171875 620.613281 509.386719 C 621.746094 507.605469 622.699219 505.734375 623.480469 503.769531 C 624.257812 501.808594 624.847656 499.789062 625.246094 497.71875 C 625.644531 495.644531 625.847656 493.550781 625.855469 491.441406 C 625.824219 488.078125 625.371094 484.777344 624.492188 481.535156 C 639.75 467.445312 657.46875 455.207031 677.914062 450.316406 C 682.835938 449.101562 687.832031 448.445312 692.898438 448.339844 C 700.40625 448.242188 702.816406 451.214844 706.207031 457.660156 C 711.152344 467.074219 713.085938 477.882812 713.699219 488.429688 C 715.933594 526.980469 710.089844 570.285156 690.542969 604.363281 C 688.484375 600.605469 684.304688 600.917969 681.484375 603.21875 C 679.140625 605.101562 686.78125 631.480469 689.507812 641.632812 Z M 689.507812 641.632812 " fill-opacity="1" fill-rule="nonzero"/></g><path fill="#233356" d="M 626.605469 625.5 C 621.742188 612.746094 613.894531 600.234375 599.265625 598.394531 C 585.726562 596.707031 573.617188 604.078125 566.328125 615.15625 C 557.789062 628.144531 557.132812 644.128906 557.269531 659.199219 C 556.765625 659.199219 547.097656 673.191406 555.773438 672.757812 C 579.949219 671.515625 605.355469 670.359375 626.535156 684.011719 C 633.851562 688.714844 630.390625 670.550781 628.890625 669.71875 C 629.824219 666.082031 630.480469 662.398438 630.855469 658.660156 C 631.230469 654.925781 631.320312 651.183594 631.125 647.433594 C 630.929688 643.683594 630.453125 639.972656 629.695312 636.296875 C 628.9375 632.617188 627.90625 629.019531 626.605469 625.5 Z M 626.605469 625.5 " fill-opacity="1" fill-rule="nonzero"/><path fill="#233356" d="M 590.207031 763.511719 C 584.460938 770.691406 578.96875 779.085938 570.660156 783.515625 C 562.351562 787.945312 552.570312 788.734375 543.539062 787.042969 C 525.34375 783.636719 508.683594 768.226562 511.460938 748.507812 C 522.453125 742.390625 537.058594 733.84375 536.839844 720.421875 C 536.605469 705.691406 515.820312 700.761719 503.96875 703.375 C 491.957031 700.71875 471.578125 705.707031 471.101562 720.421875 C 470.667969 733.75 485.554688 742.429688 496.480469 748.507812 C 499.203125 768.28125 482.585938 783.570312 464.398438 787.042969 C 462.121094 787.515625 459.820312 787.796875 457.492188 787.886719 C 455.167969 787.972656 452.851562 787.867188 450.542969 787.566406 C 448.234375 787.265625 445.96875 786.777344 443.742188 786.097656 C 441.515625 785.414062 439.363281 784.554688 437.28125 783.515625 C 428.984375 779.101562 423.480469 770.679688 417.734375 763.511719 C 412.285156 756.699219 402.84375 766.332031 408.199219 773.050781 C 416.371094 783.175781 423.835938 793.011719 436.339844 797.824219 C 443.671875 800.566406 451.246094 801.695312 459.0625 801.214844 C 461.546875 817.003906 466.128906 832.15625 472.804688 846.675781 C 478.527344 859.007812 489.871094 876.964844 505.824219 875.289062 C 519.730469 873.804688 529.128906 859.347656 534.550781 847.941406 C 541.546875 833.0625 546.3125 817.5 548.851562 801.257812 C 556.667969 801.75 564.246094 800.628906 571.585938 797.890625 C 584.089844 793.082031 591.625 783.242188 599.730469 773.117188 C 605.09375 766.34375 595.628906 756.753906 590.207031 763.511719 Z M 525.152344 836.195312 C 521.789062 844.058594 515.261719 860.613281 505.046875 861.785156 C 499.734375 862.386719 493.863281 855.859375 491.140625 852.058594 C 487.789062 847.070312 485.003906 841.78125 482.789062 836.195312 C 477.71875 824.242188 474.191406 811.851562 472.207031 799.023438 L 472.628906 798.914062 C 475.890625 798.007812 479.039062 796.796875 482.070312 795.28125 C 485.101562 793.769531 487.960938 791.976562 490.644531 789.910156 C 493.328125 787.84375 495.792969 785.539062 498.03125 782.996094 C 500.269531 780.453125 502.246094 777.71875 503.957031 774.792969 C 505.667969 777.71875 507.644531 780.453125 509.882812 782.996094 C 512.121094 785.539062 514.582031 787.84375 517.269531 789.910156 C 519.953125 791.980469 522.8125 793.769531 525.84375 795.285156 C 528.875 796.796875 532.019531 798.007812 535.285156 798.914062 L 535.695312 799.023438 C 533.734375 811.855469 530.222656 824.246094 525.152344 836.195312 Z M 525.152344 836.195312 " fill-opacity="1" fill-rule="nonzero"/><path fill="#233356" d="M 554.179688 765.621094 L 554.179688 766.128906 C 554.191406 767.015625 554.367188 767.871094 554.710938 768.695312 C 555.050781 769.515625 555.53125 770.246094 556.152344 770.882812 C 556.464844 771.195312 556.808594 771.476562 557.175781 771.722656 C 557.542969 771.96875 557.929688 772.179688 558.339844 772.347656 C 558.75 772.519531 559.171875 772.648438 559.605469 772.734375 C 560.039062 772.820312 560.476562 772.863281 560.921875 772.863281 C 561.363281 772.863281 561.804688 772.820312 562.238281 772.734375 C 562.671875 772.648438 563.09375 772.519531 563.503906 772.347656 C 563.910156 772.179688 564.300781 771.96875 564.667969 771.722656 C 565.035156 771.476562 565.375 771.195312 565.6875 770.882812 C 566.308594 770.246094 566.792969 769.515625 567.132812 768.695312 C 567.472656 767.871094 567.652344 767.015625 567.664062 766.128906 L 567.664062 765.621094 C 567.652344 764.734375 567.476562 763.875 567.136719 763.054688 C 566.796875 762.230469 566.3125 761.503906 565.6875 760.867188 C 565.375 760.554688 565.035156 760.273438 564.667969 760.027344 C 564.300781 759.78125 563.910156 759.570312 563.503906 759.402344 C 563.09375 759.230469 562.671875 759.101562 562.238281 759.015625 C 561.804688 758.929688 561.363281 758.886719 560.921875 758.886719 C 560.476562 758.886719 560.039062 758.929688 559.605469 759.015625 C 559.171875 759.101562 558.75 759.230469 558.339844 759.402344 C 557.929688 759.570312 557.542969 759.78125 557.175781 760.027344 C 556.808594 760.273438 556.464844 760.554688 556.152344 760.867188 C 555.53125 761.503906 555.050781 762.234375 554.710938 763.054688 C 554.367188 763.878906 554.191406 764.734375 554.179688 765.621094 Z M 554.179688 765.621094 " fill-opacity="1" fill-rule="nonzero"/><path fill="#233356" d="M 537.480469 765.867188 C 546.140625 765.867188 546.15625 752.40625 537.480469 752.40625 C 528.800781 752.40625 528.789062 765.867188 537.480469 765.867188 Z M 537.480469 765.867188 " fill-opacity="1" fill-rule="nonzero"/><path fill="#233356" d="M 555.445312 750.402344 C 564.109375 750.402344 564.121094 736.925781 555.445312 736.925781 C 546.769531 736.925781 546.753906 750.402344 555.445312 750.402344 Z M 555.445312 750.402344 " fill-opacity="1" fill-rule="nonzero"/><path fill="#ffffff" d="M 415.5 645 C 414.558594 644.304688 413.332031 645.679688 413.457031 646.824219 C 413.511719 647.226562 413.644531 647.597656 413.851562 647.945312 C 414.058594 648.289062 414.324219 648.582031 414.644531 648.824219 C 414.96875 649.066406 415.328125 649.234375 415.71875 649.332031 C 416.109375 649.429688 416.503906 649.449219 416.902344 649.386719 C 417.292969 649.285156 417.644531 649.109375 417.957031 648.859375 C 418.269531 648.605469 418.519531 648.300781 418.703125 647.945312 C 418.890625 647.585938 418.992188 647.207031 419.015625 646.804688 C 419.039062 646.40625 418.980469 646.015625 418.835938 645.640625 C 418.746094 645.460938 418.636719 645.296875 418.507812 645.140625 C 418.375 644.988281 418.230469 644.851562 418.070312 644.730469 C 417.910156 644.609375 417.738281 644.507812 417.554688 644.429688 C 417.375 644.347656 417.183594 644.285156 416.984375 644.25 C 416.789062 644.210938 416.589844 644.195312 416.390625 644.203125 C 416.191406 644.210938 415.992188 644.238281 415.800781 644.292969 C 415.605469 644.34375 415.421875 644.417969 415.242188 644.511719 C 415.066406 644.605469 414.902344 644.71875 414.75 644.851562 C 414.617188 644.996094 414.503906 645.15625 414.410156 645.328125 C 414.316406 645.5 414.246094 645.679688 414.191406 645.871094 C 414.140625 646.0625 414.113281 646.253906 414.109375 646.453125 C 414.105469 646.648438 414.121094 646.84375 414.164062 647.035156 C 414.203125 647.226562 414.269531 647.414062 414.351562 647.589844 C 414.4375 647.765625 414.542969 647.933594 414.667969 648.085938 C 414.792969 648.238281 414.933594 648.371094 415.089844 648.492188 C 415.246094 648.609375 415.414062 648.707031 415.59375 648.789062 " fill-opacity="1" fill-rule="nonzero"/><path fill="#ffffff" d="M 403.582031 622.105469 C 402.925781 621.738281 402.230469 621.472656 401.496094 621.308594 C 400.761719 621.144531 400.019531 621.085938 399.269531 621.140625 C 398.519531 621.195312 397.789062 621.355469 397.085938 621.621094 C 396.382812 621.886719 395.734375 622.25 395.136719 622.707031 L 395.039062 622.707031 C 389.484375 624.421875 388.691406 633.265625 391.171875 637.695312 C 394.386719 643.445312 402.3125 642.996094 406.15625 638.144531 C 409.996094 633.292969 409.398438 625.199219 403.582031 622.105469 Z M 403.582031 622.105469 " fill-opacity="1" fill-rule="nonzero"/><path fill="#ffffff" d="M 414.054688 642.546875 L 413.660156 642.820312 C 412.726562 643.234375 412.050781 643.90625 411.632812 644.835938 C 411.441406 645.277344 411.324219 645.738281 411.277344 646.21875 C 411.226562 646.699219 411.253906 647.171875 411.355469 647.644531 C 411.453125 648.113281 411.625 648.558594 411.863281 648.976562 C 412.097656 649.394531 412.394531 649.769531 412.75 650.097656 C 413.070312 650.417969 413.429688 650.695312 413.824219 650.917969 C 414.222656 651.144531 414.640625 651.3125 415.082031 651.421875 C 415.527344 651.53125 415.976562 651.582031 416.429688 651.566406 C 416.886719 651.554688 417.332031 651.480469 417.769531 651.34375 C 418.203125 651.210938 418.613281 651.015625 418.996094 650.769531 C 419.378906 650.519531 419.722656 650.226562 420.023438 649.882812 C 420.324219 649.542969 420.574219 649.167969 420.773438 648.753906 C 420.972656 648.34375 421.113281 647.914062 421.191406 647.464844 C 421.261719 647.019531 421.265625 646.570312 421.207031 646.125 C 421.148438 645.675781 421.027344 645.242188 420.847656 644.828125 C 420.667969 644.414062 420.4375 644.03125 420.148438 643.683594 C 419.863281 643.335938 419.53125 643.03125 419.160156 642.777344 C 418.789062 642.519531 418.386719 642.320312 417.960938 642.175781 C 417.53125 642.03125 417.09375 641.949219 416.640625 641.929688 C 416.191406 641.910156 415.746094 641.949219 415.304688 642.054688 C 414.867188 642.160156 414.449219 642.324219 414.054688 642.546875 Z M 416.863281 646.632812 Z M 416.65625 646.769531 L 416.78125 646.6875 C 416.78125 646.6875 416.78125 646.6875 416.78125 646.757812 Z M 416.65625 646.769531 " fill-opacity="1" fill-rule="nonzero"/><path fill="#ffffff" d="M 595.996094 645 C 595.070312 644.304688 593.832031 645.679688 593.96875 646.824219 C 594.023438 647.226562 594.15625 647.597656 594.363281 647.945312 C 594.566406 648.289062 594.832031 648.582031 595.15625 648.824219 C 595.480469 649.066406 595.835938 649.234375 596.230469 649.332031 C 596.621094 649.429688 597.015625 649.449219 597.414062 649.386719 C 597.800781 649.285156 598.152344 649.105469 598.464844 648.855469 C 598.777344 648.601562 599.023438 648.300781 599.210938 647.941406 C 599.394531 647.585938 599.496094 647.207031 599.523438 646.804688 C 599.546875 646.40625 599.488281 646.015625 599.347656 645.640625 C 599.257812 645.460938 599.144531 645.296875 599.015625 645.140625 C 598.886719 644.988281 598.742188 644.851562 598.582031 644.730469 C 598.421875 644.609375 598.25 644.507812 598.066406 644.429688 C 597.882812 644.347656 597.695312 644.285156 597.496094 644.25 C 597.300781 644.210938 597.101562 644.195312 596.902344 644.203125 C 596.699219 644.210938 596.503906 644.238281 596.308594 644.292969 C 596.117188 644.34375 595.929688 644.417969 595.753906 644.511719 C 595.578125 644.605469 595.414062 644.71875 595.261719 644.851562 C 595.128906 644.996094 595.015625 645.15625 594.921875 645.328125 C 594.828125 645.5 594.753906 645.679688 594.703125 645.871094 C 594.652344 646.0625 594.625 646.253906 594.621094 646.453125 C 594.613281 646.648438 594.632812 646.84375 594.675781 647.035156 C 594.714844 647.226562 594.777344 647.414062 594.863281 647.589844 C 594.949219 647.765625 595.054688 647.933594 595.179688 648.085938 C 595.300781 648.238281 595.441406 648.371094 595.601562 648.492188 C 595.757812 648.609375 595.925781 648.710938 596.105469 648.789062 " fill-opacity="1" fill-rule="nonzero"/><path fill="#ffffff" d="M 584.050781 622.105469 C 583.394531 621.738281 582.699219 621.472656 581.964844 621.308594 C 581.230469 621.144531 580.488281 621.085938 579.738281 621.140625 C 578.988281 621.195312 578.261719 621.355469 577.558594 621.621094 C 576.851562 621.886719 576.203125 622.25 575.605469 622.707031 L 575.511719 622.707031 C 569.953125 624.421875 569.148438 633.265625 571.640625 637.695312 C 574.855469 643.445312 582.785156 642.996094 586.625 638.144531 C 590.464844 633.292969 589.90625 625.199219 584.050781 622.105469 Z M 584.050781 622.105469 " fill-opacity="1" fill-rule="nonzero"/><path fill="#ffffff" d="M 594.566406 642.546875 C 594.425781 642.625 594.296875 642.71875 594.171875 642.820312 C 593.238281 643.234375 592.558594 643.910156 592.128906 644.835938 C 591.9375 645.277344 591.820312 645.742188 591.773438 646.21875 C 591.730469 646.699219 591.757812 647.175781 591.859375 647.644531 C 591.960938 648.117188 592.128906 648.5625 592.367188 648.980469 C 592.609375 649.398438 592.902344 649.769531 593.257812 650.097656 C 593.582031 650.417969 593.941406 650.691406 594.335938 650.914062 C 594.734375 651.136719 595.152344 651.300781 595.59375 651.410156 C 596.035156 651.519531 596.484375 651.566406 596.941406 651.554688 C 597.394531 651.539062 597.839844 651.464844 598.273438 651.328125 C 598.707031 651.195312 599.117188 651.003906 599.5 650.757812 C 599.882812 650.507812 600.222656 650.214844 600.527344 649.875 C 600.828125 649.535156 601.078125 649.160156 601.28125 648.75 C 601.480469 648.34375 601.621094 647.914062 601.703125 647.464844 C 601.769531 647.019531 601.777344 646.570312 601.71875 646.125 C 601.660156 645.675781 601.539062 645.242188 601.359375 644.828125 C 601.179688 644.414062 600.945312 644.03125 600.660156 643.683594 C 600.371094 643.335938 600.042969 643.03125 599.671875 642.777344 C 599.300781 642.519531 598.898438 642.320312 598.472656 642.175781 C 598.042969 642.03125 597.601562 641.949219 597.152344 641.929688 C 596.699219 641.910156 596.253906 641.953125 595.816406 642.054688 C 595.375 642.160156 594.960938 642.324219 594.566406 642.546875 Z M 597.359375 646.632812 Z M 597.167969 646.769531 L 597.277344 646.6875 C 597.273438 646.710938 597.273438 646.734375 597.277344 646.757812 Z M 597.167969 646.769531 " fill-opacity="1" fill-rule="nonzero"/><g fill="#ffffff" fill-opacity="1"><g transform="translate(240.349232, 922.37438)"><g><path d="M 93.3125 -42.484375 C 97.019531 -39.140625 100.160156 -35.320312 102.734375 -31.03125 C 105.316406 -26.75 106.984375 -23.304688 107.734375 -20.703125 L 108.734375 -16.78125 L 91.140625 -10.046875 C 90.953125 -10.828125 90.648438 -11.875 90.234375 -13.1875 C 89.828125 -14.507812 88.804688 -16.710938 87.171875 -19.796875 C 85.535156 -22.890625 83.660156 -25.390625 81.546875 -27.296875 C 78.941406 -29.648438 76.429688 -30.910156 74.015625 -31.078125 C 71.609375 -31.242188 69.554688 -30.382812 67.859375 -28.5 C 67.003906 -27.5625 66.546875 -26.390625 66.484375 -24.984375 C 66.421875 -23.578125 66.78125 -21.691406 67.5625 -19.328125 C 68.351562 -16.960938 69.101562 -14.953125 69.8125 -13.296875 C 70.53125 -11.640625 71.664062 -9.109375 73.21875 -5.703125 C 75.9375 0.179688 77.398438 6.15625 77.609375 12.21875 C 77.828125 18.289062 76.082031 23.378906 72.375 27.484375 C 68.820312 31.421875 65.007812 34.21875 60.9375 35.875 C 56.875 37.539062 52.859375 38.09375 48.890625 37.53125 C 44.921875 36.96875 41.078125 35.734375 37.359375 33.828125 C 33.648438 31.929688 30.046875 29.40625 26.546875 26.25 C 23.554688 23.550781 20.894531 20.59375 18.5625 17.375 C 16.238281 14.164062 14.519531 11.226562 13.40625 8.5625 C 12.289062 5.894531 11.351562 3.414062 10.59375 1.125 C 9.84375 -1.164062 9.382812 -2.941406 9.21875 -4.203125 L 8.96875 -6.078125 L 28.640625 -12.15625 C 28.804688 -11.007812 29.082031 -9.476562 29.46875 -7.5625 C 29.851562 -5.644531 30.878906 -2.628906 32.546875 1.484375 C 34.210938 5.597656 36.179688 8.679688 38.453125 10.734375 C 45.046875 16.691406 50.367188 17.429688 54.421875 12.953125 C 55.273438 12.003906 55.828125 10.914062 56.078125 9.6875 C 56.335938 8.457031 56.234375 6.898438 55.765625 5.015625 C 55.296875 3.128906 54.816406 1.539062 54.328125 0.25 C 53.835938 -1.039062 52.988281 -3.109375 51.78125 -5.953125 C 50.582031 -8.804688 49.707031 -10.9375 49.15625 -12.34375 C 46.863281 -18.132812 45.96875 -23.59375 46.46875 -28.71875 C 46.96875 -33.851562 48.820312 -38.195312 52.03125 -41.75 C 57.582031 -47.894531 64.394531 -50.863281 72.46875 -50.65625 C 80.550781 -50.457031 87.5 -47.734375 93.3125 -42.484375 Z M 93.3125 -42.484375 "/></g></g></g><g fill="#ffffff" fill-opacity="1"><g transform="translate(302.38063, 979.992274)"><g><path d="M 6.0625 2.90625 L 30.875 -48.921875 L 48.75 -40.359375 L 46.140625 -34.890625 L 46.34375 -34.796875 C 53.21875 -37.234375 59.28125 -37.191406 64.53125 -34.671875 C 68.289062 -32.867188 71.453125 -30.398438 74.015625 -27.265625 C 76.578125 -24.140625 77.925781 -20.554688 78.0625 -16.515625 C 86.34375 -20.335938 93.582031 -20.765625 99.78125 -17.796875 C 105.300781 -15.160156 109.304688 -11.335938 111.796875 -6.328125 C 114.285156 -1.328125 113.953125 4.472656 110.796875 11.078125 L 94.453125 45.21875 L 76.5625 36.65625 L 90.59375 7.359375 C 91.914062 4.597656 92.265625 1.929688 91.640625 -0.640625 C 91.015625 -3.222656 89.1875 -5.242188 86.15625 -6.703125 C 83.53125 -7.953125 81.144531 -8.113281 79 -7.1875 C 76.863281 -6.269531 75.191406 -4.734375 73.984375 -2.578125 L 59.1875 28.328125 L 41.328125 19.78125 L 55.359375 -9.515625 C 56.679688 -12.273438 57.023438 -14.941406 56.390625 -17.515625 C 55.753906 -20.097656 53.925781 -22.117188 50.90625 -23.578125 C 48.144531 -24.890625 45.660156 -25.015625 43.453125 -23.953125 C 41.242188 -22.898438 39.570312 -21.191406 38.4375 -18.828125 L 23.9375 11.46875 Z M 6.0625 2.90625 "/></g></g></g><g fill="#ffffff" fill-opacity="1"><g transform="translate(411.387835, 1028.022821)"><g><path d="M 11.609375 -5.359375 C 7.222656 -11.992188 5.691406 -19.515625 7.015625 -27.921875 C 8.335938 -36.328125 12.113281 -43.023438 18.34375 -48.015625 C 24.570312 -53.003906 31.785156 -54.851562 39.984375 -53.5625 C 47.503906 -52.382812 53.320312 -49.046875 57.4375 -43.546875 L 58.296875 -48.96875 L 77.875 -45.875 L 68.921875 10.875 L 49.5625 7.8125 L 50.578125 1.390625 L 50.359375 1.359375 C 44.640625 5.984375 38.019531 7.707031 30.5 6.53125 C 22.300781 5.238281 16.003906 1.273438 11.609375 -5.359375 Z M 33.140625 -33.65625 C 30.203125 -31.550781 28.425781 -28.539062 27.8125 -24.625 C 27.195312 -20.71875 27.910156 -17.335938 29.953125 -14.484375 C 32.003906 -11.640625 35.019531 -9.898438 39 -9.265625 C 42.820312 -8.660156 46.171875 -9.414062 49.046875 -11.53125 C 51.921875 -13.644531 53.660156 -16.625 54.265625 -20.46875 C 54.878906 -24.375 54.109375 -27.78125 51.953125 -30.6875 C 49.804688 -33.59375 46.890625 -35.335938 43.203125 -35.921875 C 39.429688 -36.515625 36.078125 -35.757812 33.140625 -33.65625 Z M 33.140625 -33.65625 "/></g></g></g><g fill="#ffffff" fill-opacity="1"><g transform="translate(493.284583, 1039.222211)"><g><path d="M 6.703125 -0.328125 L 3.890625 -57.71875 L 23.703125 -58.6875 L 24.109375 -50.40625 L 24.328125 -50.421875 C 24.460938 -50.710938 24.6875 -51.09375 25 -51.5625 C 25.320312 -52.03125 26.015625 -52.847656 27.078125 -54.015625 C 28.140625 -55.191406 29.28125 -56.257812 30.5 -57.21875 C 31.726562 -58.1875 33.332031 -59.070312 35.3125 -59.875 C 37.289062 -60.675781 39.328125 -61.128906 41.421875 -61.234375 C 43.566406 -61.335938 45.703125 -61.140625 47.828125 -60.640625 C 49.953125 -60.148438 51.515625 -59.632812 52.515625 -59.09375 L 54.109375 -58.265625 L 46.65625 -41.078125 C 44.09375 -43.046875 40.609375 -43.925781 36.203125 -43.71875 C 33.816406 -43.59375 31.789062 -42.960938 30.125 -41.828125 C 28.46875 -40.703125 27.320312 -39.375 26.6875 -37.84375 C 26.050781 -36.320312 25.609375 -35.035156 25.359375 -33.984375 C 25.117188 -32.929688 25.015625 -32.101562 25.046875 -31.5 L 26.515625 -1.296875 Z M 6.703125 -0.328125 "/></g></g></g><g fill="#ffffff" fill-opacity="1"><g transform="translate(553.582782, 1035.464754)"><g><path d="M -1.765625 -58.3125 L -6.109375 -79.25 L 13.296875 -83.265625 L 17.640625 -62.328125 L 29.484375 -64.78125 L 32.546875 -49.984375 L 20.703125 -47.53125 L 24.40625 -29.640625 C 25.476562 -24.453125 27.476562 -22.160156 30.40625 -22.765625 C 31.132812 -22.921875 31.867188 -23.226562 32.609375 -23.6875 C 33.359375 -24.144531 33.921875 -24.5625 34.296875 -24.9375 L 34.875 -25.515625 L 42.921875 -10.828125 C 39.253906 -7.617188 34.753906 -5.460938 29.421875 -4.359375 C 25.753906 -3.597656 22.472656 -3.585938 19.578125 -4.328125 C 16.679688 -5.066406 14.332031 -6.375 12.53125 -8.25 C 10.726562 -10.125 9.289062 -12.191406 8.21875 -14.453125 C 7.144531 -16.710938 6.328125 -19.191406 5.765625 -21.890625 L 1.296875 -43.515625 L -6.8125 -41.828125 L -9.875 -56.625 Z M -1.765625 -58.3125 "/></g></g></g><g fill="#ffffff" fill-opacity="1"><g transform="translate(602.678856, 1026.194372)"><g><path d="M -28.796875 -88.0625 L 2.40625 -100.84375 C 11.113281 -104.40625 19.078125 -105.039062 26.296875 -102.75 C 33.523438 -100.46875 38.894531 -95.039062 42.40625 -86.46875 C 45.914062 -77.894531 45.9375 -70.054688 42.46875 -62.953125 C 39.007812 -55.847656 33 -50.546875 24.4375 -47.046875 L 12.71875 -42.25 L 25.703125 -10.53125 L 6.21875 -2.546875 Z M 6.34375 -57.796875 L 11.84375 -60.046875 C 16.1875 -61.816406 19.398438 -64.15625 21.484375 -67.0625 C 23.566406 -69.976562 23.789062 -73.441406 22.15625 -77.453125 C 20.476562 -81.535156 17.878906 -83.878906 14.359375 -84.484375 C 10.835938 -85.085938 6.90625 -84.503906 2.5625 -82.734375 L -2.9375 -80.484375 Z M 6.34375 -57.796875 "/></g></g></g><g fill="#ffffff" fill-opacity="1"><g transform="translate(677.488849, 994.342207)"><g><path d="M 38.296875 -58.421875 L 4.140625 -34.578125 C 6.453125 -31.265625 9.234375 -29.5625 12.484375 -29.46875 C 15.742188 -29.375 18.625 -30.203125 21.125 -31.953125 C 23.757812 -33.796875 25.597656 -35.601562 26.640625 -37.375 C 27.679688 -39.144531 28.453125 -41.753906 28.953125 -45.203125 L 44.828125 -47.53125 C 45.648438 -35.894531 40.367188 -26.101562 28.984375 -18.15625 C 21.878906 -13.195312 14.082031 -11.378906 5.59375 -12.703125 C -2.882812 -14.023438 -9.515625 -18.113281 -14.296875 -24.96875 C -19.085938 -31.832031 -20.648438 -39.488281 -18.984375 -47.9375 C -17.316406 -56.382812 -12.929688 -63.085938 -5.828125 -68.046875 C 1.640625 -73.265625 9.222656 -75.347656 16.921875 -74.296875 C 24.617188 -73.242188 31.265625 -68.707031 36.859375 -60.6875 C 37.628906 -59.582031 38.109375 -58.828125 38.296875 -58.421875 Z M -1.65625 -43.90625 L 16.234375 -56.390625 C 14.148438 -58.585938 11.867188 -59.796875 9.390625 -60.015625 C 6.921875 -60.242188 4.457031 -59.5 2 -57.78125 C -0.6875 -55.90625 -2.335938 -53.710938 -2.953125 -51.203125 C -3.566406 -48.691406 -3.132812 -46.257812 -1.65625 -43.90625 Z M -1.65625 -43.90625 "/></g></g></g><g fill="#ffffff" fill-opacity="1"><g transform="translate(736.265751, 951.553563)"><g><path d="M -33.375 -47.84375 L -48.453125 -63.015625 L -34.390625 -77 L -19.3125 -61.828125 L -10.734375 -70.359375 L -0.078125 -59.640625 L -8.65625 -51.109375 L 4.21875 -38.171875 C 7.957031 -34.410156 10.882812 -33.582031 13 -35.6875 C 13.53125 -36.207031 13.976562 -36.863281 14.34375 -37.65625 C 14.71875 -38.457031 14.960938 -39.117188 15.078125 -39.640625 L 15.234375 -40.421875 L 30.015625 -32.53125 C 28.691406 -27.84375 26.097656 -23.578125 22.234375 -19.734375 C 19.585938 -17.097656 16.847656 -15.296875 14.015625 -14.328125 C 11.191406 -13.359375 8.515625 -13.164062 5.984375 -13.75 C 3.453125 -14.34375 1.117188 -15.289062 -1.015625 -16.59375 C -3.160156 -17.894531 -5.207031 -19.523438 -7.15625 -21.484375 L -22.71875 -37.125 L -28.578125 -31.28125 L -39.234375 -42 Z M -33.375 -47.84375 "/></g></g></g></svg>